HIERARCHY
ROOT Hips
{
	OFFSET 0.000000 0.000000 0.000000
	CHANNELS 6 Xposition Yposition Zposition Xrotation Yrotation Zrotation
	JOINT C_ctrl
	{
		OFFSET 0.000000 35.040482 -0.000011
		CHANNELS 3 Xrotation Yrotation Zrotation
		JOINT Bip01
		{
			OFFSET -41.537640 41.789009 -0.000007
			CHANNELS 3 Xrotation Yrotation Zrotation
			JOINT Bip01_Pelvis
			{
				OFFSET -2.462887 0.000000 0.000000
				CHANNELS 3 Xrotation Yrotation Zrotation
				JOINT BN_Tail_01
				{
					OFFSET -11.399368 7.351341 -0.000013
					CHANNELS 3 Xrotation Yrotation Zrotation
					JOINT BN_Tail_02
					{
						OFFSET -11.365196 -0.343025 0.000012
						CHANNELS 3 Xrotation Yrotation Zrotation
						JOINT BN_Tail_03
						{
							OFFSET -15.076256 -0.454979 0.000017
							CHANNELS 3 Xrotation Yrotation Zrotation
							JOINT BN_Tail_04
							{
								OFFSET -17.395691 -0.525002 0.000016
								CHANNELS 3 Xrotation Yrotation Zrotation
								JOINT BN_Tail_05
								{
									OFFSET -16.699837 -0.504005 0.000016
									CHANNELS 3 Xrotation Yrotation Zrotation
									End Site
									{
										OFFSET 0.503998 -16.699829 0.000067
									}
								}
							}
						}
					}
				}
				JOINT Bip01_Spine
				{
					OFFSET 8.297798 5.916809 -0.000020
					CHANNELS 3 Xrotation Yrotation Zrotation
					JOINT Bip01_R_Thigh
					{
						OFFSET -8.297779 -5.916794 10.541781
						CHANNELS 3 Xrotation Yrotation Zrotation
						JOINT Bip01_R_Calf
						{
							OFFSET 5.631542 -22.906792 0.862690
							CHANNELS 3 Xrotation Yrotation Zrotation
							JOINT Bip01_R_HorseLink
							{
								OFFSET -16.984341 -19.231926 -3.555767
								CHANNELS 3 Xrotation Yrotation Zrotation
								JOINT Bip01_R_Foot
								{
									OFFSET 4.290367 -24.783146 0.578056
									CHANNELS 3 Xrotation Yrotation Zrotation
									JOINT Bip01_R_Toe0
									{
										OFFSET 3.561211 -5.815116 0.760802
										CHANNELS 3 Xrotation Yrotation Zrotation
										JOINT Bip01_R_Toe0Nub
										{
											OFFSET 16.135469 0.002017 1.534789
											CHANNELS 3 Xrotation Yrotation Zrotation
											End Site
											{
												OFFSET -0.000002 16.208284 -0.000056
											}
										}
									}
								}
							}
						}
					}
					JOINT Bip01_L_Thigh
					{
						OFFSET -8.297813 -5.916832 -10.541739
						CHANNELS 3 Xrotation Yrotation Zrotation
						JOINT Bip01_L_Calf
						{
							OFFSET 5.631535 -22.906792 -0.862625
							CHANNELS 3 Xrotation Yrotation Zrotation
							JOINT Bip01_L_HorseLink
							{
								OFFSET -16.984318 -19.231949 3.555875
								CHANNELS 3 Xrotation Yrotation Zrotation
								JOINT Bip01_L_Foot
								{
									OFFSET 4.290367 -24.783169 -0.577965
									CHANNELS 3 Xrotation Yrotation Zrotation
									JOINT Bip01_L_Toe0
									{
										OFFSET 3.561245 -5.815111 -0.760799
										CHANNELS 3 Xrotation Yrotation Zrotation
										JOINT Bip01_L_Toe0Nub
										{
											OFFSET 6.574303 -0.000005 -1.538561
											CHANNELS 3 Xrotation Yrotation Zrotation
											End Site
											{
												OFFSET 0.000004 -6.751935 0.000023
											}
										}
									}
								}
							}
						}
					}
					JOINT Bip01_Spine1
					{
						OFFSET 20.556803 -4.626213 -0.000025
						CHANNELS 3 Xrotation Yrotation Zrotation
						JOINT Saddle
						{
							OFFSET 17.608810 18.174690 -0.000143
							CHANNELS 3 Xrotation Yrotation Zrotation
							End Site
							{
								OFFSET -0.000063 -0.000061 -22.448387
							}
						}
						JOINT BN_center
						{
							OFFSET 10.743275 -13.417107 -0.172041
							CHANNELS 3 Xrotation Yrotation Zrotation
							End Site
							{
								OFFSET 22.434088 0.553078 -0.579614
							}
						}
						JOINT Bip01_Spine2
						{
							OFFSET 24.765072 -2.054115 -0.000032
							CHANNELS 3 Xrotation Yrotation Zrotation
							JOINT Handle
							{
								OFFSET 63.735676 16.430748 -16.052464
								CHANNELS 3 Xrotation Yrotation Zrotation
								JOINT IK_Chain01
								{
									OFFSET -4.713058 -6.020439 0.185448
									CHANNELS 3 Xrotation Yrotation Zrotation
									End Site
									{
										OFFSET -0.000023 -0.000023 -7.648071
									}
								}
							}
							JOINT BN_hair04_01
							{
								OFFSET 1.987491 16.256981 -2.049672
								CHANNELS 3 Xrotation Yrotation Zrotation
								JOINT BN_hair04_02
								{
									OFFSET -1.318762 -3.831451 -6.174704
									CHANNELS 3 Xrotation Yrotation Zrotation
									JOINT BN_hair04_03
									{
										OFFSET -0.827490 -5.886627 -5.656666
										CHANNELS 3 Xrotation Yrotation Zrotation
										End Site
										{
											OFFSET -2.658262 5.010620 -5.929780
										}
									}
								}
							}
							JOINT Bip01_Neck
							{
								OFFSET 25.574577 9.433014 -0.000084
								CHANNELS 3 Xrotation Yrotation Zrotation
								JOINT Bip01_R_Clavicle
								{
									OFFSET -16.535652 0.011192 6.705692
									CHANNELS 3 Xrotation Yrotation Zrotation
									JOINT Bip01_R_UpperArm
									{
										OFFSET 20.272621 -12.959984 2.510816
										CHANNELS 3 Xrotation Yrotation Zrotation
										JOINT Bip01_R_Forearm
										{
											OFFSET -13.633509 -15.503704 -0.653585
											CHANNELS 3 Xrotation Yrotation Zrotation
											JOINT Bip01_R_Hand
											{
												OFFSET 2.580030 -27.804676 -1.136415
												CHANNELS 3 Xrotation Yrotation Zrotation
												JOINT Bip01_R_Finger0
												{
													OFFSET -0.281744 -19.659061 -0.398649
													CHANNELS 3 Xrotation Yrotation Zrotation
													JOINT Bip01_Xtra02
													{
														OFFSET 4.152210 -5.712314 0.433813
														CHANNELS 3 Xrotation Yrotation Zrotation
														JOINT Bip01_Xtra02Nub
														{
															OFFSET 15.457960 0.041654 0.507982
															CHANNELS 3 Xrotation Yrotation Zrotation
															End Site
															{
																OFFSET -15.421730 -0.157725 -1.163459
															}
														}
													}
													JOINT Bip01_R_Finger0Nub
													{
														OFFSET 8.362326 -9.718440 -0.143142
														CHANNELS 3 Xrotation Yrotation Zrotation
														End Site
														{
															OFFSET -1.213036 -0.198171 9.872291
														}
													}
												}
											}
										}
									}
								}
								JOINT Bip01_L_Clavicle
								{
									OFFSET -16.535673 0.011162 -6.705583
									CHANNELS 3 Xrotation Yrotation Zrotation
									JOINT Bip01_L_UpperArm
									{
										OFFSET 20.272615 -12.959999 -2.510836
										CHANNELS 3 Xrotation Yrotation Zrotation
										JOINT Bip01_L_Forearm
										{
											OFFSET -13.633495 -15.503681 0.653678
											CHANNELS 3 Xrotation Yrotation Zrotation
											JOINT Bip01_L_Hand
											{
												OFFSET 2.579988 -27.804686 1.136487
												CHANNELS 3 Xrotation Yrotation Zrotation
												JOINT Bip01_L_Finger0
												{
													OFFSET -0.281765 -19.659058 0.398696
													CHANNELS 3 Xrotation Yrotation Zrotation
													JOINT Bip01_Xtra01
													{
														OFFSET 4.083549 -5.738758 -0.666714
														CHANNELS 3 Xrotation Yrotation Zrotation
														JOINT Bip01_Xtra01Nub
														{
															OFFSET 6.758158 -0.395525 -0.023239
															CHANNELS 3 Xrotation Yrotation Zrotation
															End Site
															{
																OFFSET 6.764923 -0.254147 -0.029908
															}
														}
													}
													JOINT Bip01_L_Finger0Nub
													{
														OFFSET -0.012636 -9.629153 0.045740
														CHANNELS 3 Xrotation Yrotation Zrotation
														End Site
														{
															OFFSET 0.988407 0.004791 8.293357
														}
													}
												}
											}
										}
									}
								}
								JOINT BN_hair03_01
								{
									OFFSET -5.894140 16.270622 -2.498433
									CHANNELS 3 Xrotation Yrotation Zrotation
									JOINT BN_hair03_02
									{
										OFFSET -0.189278 -7.800507 -6.219162
										CHANNELS 3 Xrotation Yrotation Zrotation
										JOINT BN_hair03_03
										{
											OFFSET 0.612345 -10.844475 -3.370718
											CHANNELS 3 Xrotation Yrotation Zrotation
											End Site
											{
												OFFSET -2.273296 2.862007 -10.769416
											}
										}
									}
								}
								JOINT Bip01_Neck1
								{
									OFFSET 9.383755 11.908699 -0.000007
									CHANNELS 3 Xrotation Yrotation Zrotation
									JOINT BN_hair02_01
									{
										OFFSET 9.126320 18.808022 -1.420810
										CHANNELS 3 Xrotation Yrotation Zrotation
										JOINT BN_hair02_02
										{
											OFFSET 0.393478 -5.181091 -5.248574
											CHANNELS 3 Xrotation Yrotation Zrotation
											JOINT BN_hair02_03
											{
												OFFSET 0.762280 -8.167076 -0.230047
												CHANNELS 3 Xrotation Yrotation Zrotation
												End Site
												{
													OFFSET -0.025837 -1.251419 -8.109770
												}
											}
										}
									}
									JOINT Bip01_Head
									{
										OFFSET 14.266129 10.475403 -0.000008
										CHANNELS 3 Xrotation Yrotation Zrotation
										JOINT BN_Reins_01
										{
											OFFSET 18.547455 -15.740112 -0.000035
											CHANNELS 3 Xrotation Yrotation Zrotation
											JOINT BN_Reins_02
											{
												OFFSET -5.372810 -5.884506 0.000028
												CHANNELS 3 Xrotation Yrotation Zrotation
												JOINT BN_Reins_03
												{
													OFFSET -6.395866 -15.947449 0.000070
													CHANNELS 3 Xrotation Yrotation Zrotation
													JOINT BN_Halter_R_01
													{
														OFFSET -1.234055 -3.096100 7.096737
														CHANNELS 3 Xrotation Yrotation Zrotation
														End Site
														{
															OFFSET 10.514435 -4.176861 -0.000004
														}
													}
													JOINT BN_Halter_L_01
													{
														OFFSET -1.234062 -3.096146 -7.096726
														CHANNELS 3 Xrotation Yrotation Zrotation
														End Site
														{
															OFFSET -10.514435 4.176865 -0.000000
														}
													}
													JOINT BN_Reins_04
													{
														OFFSET -6.737644 -16.971684 0.000074
														CHANNELS 3 Xrotation Yrotation Zrotation
														JOINT BN_Halter_R_02
														{
															OFFSET -4.688869 -11.781956 7.096771
															CHANNELS 3 Xrotation Yrotation Zrotation
															End Site
															{
																OFFSET 14.669624 -5.827511 -0.000006
															}
														}
														JOINT BN_Halter_L_02
														{
															OFFSET -4.688892 -11.782017 -7.096693
															CHANNELS 3 Xrotation Yrotation Zrotation
															End Site
															{
																OFFSET -14.669624 5.827507 -0.000002
															}
														}
														JOINT BN_Reins_05
														{
															OFFSET -6.822578 -16.971161 0.000074
															CHANNELS 3 Xrotation Yrotation Zrotation
															JOINT BN_Reins_06
															{
																OFFSET -6.140354 -15.095148 0.000066
																CHANNELS 3 Xrotation Yrotation Zrotation
																End Site
																{
																	OFFSET -15.095150 6.140352 -0.000002
																}
															}
														}
													}
												}
											}
										}
										JOINT BN_hair01_01
										{
											OFFSET 8.957344 8.870956 0.112121
											CHANNELS 3 Xrotation Yrotation Zrotation
											JOINT BN_hair01_02
											{
												OFFSET 6.002075 -2.962952 -3.121264
												CHANNELS 3 Xrotation Yrotation Zrotation
												End Site
												{
													OFFSET 5.917702 3.813591 -2.232396
												}
											}
										}
										JOINT BN_Eyebrow_R
										{
											OFFSET 11.795959 -0.430496 4.449781
											CHANNELS 3 Xrotation Yrotation Zrotation
											JOINT Bip01_Xtra06Nub
											{
												OFFSET 2.936661 -0.262573 3.246701
												CHANNELS 3 Xrotation Yrotation Zrotation
												End Site
												{
													OFFSET 2.768745 0.208199 3.394807
												}
											}
										}
										JOINT BN_Eyebrow_L
										{
											OFFSET 11.586395 -0.445618 -4.441728
											CHANNELS 3 Xrotation Yrotation Zrotation
											JOINT Bip01_Xtra05Nub
											{
												OFFSET 3.244698 -0.349442 -4.416700
												CHANNELS 3 Xrotation Yrotation Zrotation
												End Site
												{
													OFFSET 3.053162 0.072495 -4.564033
												}
											}
										}
										JOINT Bip01_R_Ear_01
										{
											OFFSET 7.142960 7.567184 4.311657
											CHANNELS 3 Xrotation Yrotation Zrotation
											JOINT Bip01_Xtra04Nub
											{
												OFFSET 9.464531 9.264214 1.682953
												CHANNELS 3 Xrotation Yrotation Zrotation
												End Site
												{
													OFFSET 8.448181 10.159340 1.910823
												}
											}
										}
										JOINT Bip01__L_Ear_01
										{
											OFFSET 7.214943 7.717056 -4.356771
											CHANNELS 3 Xrotation Yrotation Zrotation
											JOINT Bip01_Xtra03Nub
											{
												OFFSET 9.230225 8.944366 -2.322746
												CHANNELS 3 Xrotation Yrotation Zrotation
												End Site
												{
													OFFSET 8.170288 9.841324 -2.643566
												}
											}
										}
										JOINT Bip01_Jaw
										{
											OFFSET 9.196068 -4.110695 -0.000013
											CHANNELS 3 Xrotation Yrotation Zrotation
											JOINT Bip01_Ponytail1Nub
											{
												OFFSET 10.976463 -21.082108 -0.000053
												CHANNELS 3 Xrotation Yrotation Zrotation
												End Site
												{
													OFFSET 11.247093 -20.938980 0.000113
												}
											}
										}
										JOINT Bip01_HeadNub
										{
											OFFSET 29.954575 -18.249489 -0.000063
											CHANNELS 3 Xrotation Yrotation Zrotation
											End Site
											{
												OFFSET -9.198448 -13.366348 0.000168
											}
										}
									}
								}
							}
						}
					}
				}
			}
		}
	}
}
MOTION
Frames: 4
Frame Time: 0.033333
0.000000 0.000000 0.000000 0.000008 0.000000 -0.000000 -0.000000 0.000000 -0.000000 87.703153 -178.300750 -1.844493 0.003484 0.000000 -0.000021 2.266122 -3.442251 4.971075 2.861692 -5.965688 23.765058 -1.200324 2.995689 21.241538 -0.135341 1.015751 11.723580 0.203953 -1.572311 6.770905 -1.273624 -9.946744 10.122146 18.998448 9.526324 5.643299 7.981123 -2.700603 -43.611888 -1.619236 -0.206623 8.273273 -12.544645 -29.108456 -45.150255 -1.250705 -0.064067 5.863946 0.000100 -0.000139 0.000005 13.585209 -1.623332 42.904171 -11.587002 8.338759 -77.667468 1.927860 0.273445 9.871276 12.419449 -26.614759 -34.696272 -0.248382 0.471276 -2.242572 -0.008410 0.019452 -0.033362 5.585892 0.752459 -33.982725 0.917530 -0.020778 6.784381 0.083463 -0.095008 0.018171 2.766527 5.292083 -34.104699 0.000079 -0.000114 -0.000059 -0.000052 -0.014927 0.015042 -0.008398 0.000178 0.012278 -1.413264 0.440313 -0.258010 4.547639 -0.635896 0.188210 3.912962 0.385628 -36.927974 -2.802603 -2.753097 36.020539 1.619446 17.628928 -19.261173 1.418044 -2.232778 68.530744 -1.080079 -17.860434 -74.858873 2.427348 -2.251862 -49.876497 -1.002607 -0.004214 -0.069880 -0.793851 0.152330 -0.479421 -0.804182 0.123485 -0.482660 -2.946698 -2.617962 36.483903 -2.922691 8.157834 2.626828 -0.465410 1.481276 38.585323 -15.785462 -14.223423 -108.768249 -0.718784 2.617372 -54.133982 2.691636 2.076601 -0.752337 0.036566 0.063696 2.451861 -0.000913 0.100575 2.451956 -0.041626 -0.001045 0.050812 -0.146482 0.086040 -0.361129 0.864374 -0.892776 3.553473 -0.128001 1.499979 -8.993616 -0.045065 0.001640 0.046344 1.563187 0.282304 -4.594797 -1.638934 -1.248446 -7.198590 5.829632 8.638296 43.472959 -0.000040 0.000337 33.480064 -0.441794 -0.458731 -72.796143 -0.000060 -0.000070 -21.993959 0.000022 -0.000010 -0.026803 0.000021 -0.000026 0.012745 -0.000077 -0.000107 -34.639882 0.000039 0.000015 0.015166 0.000028 -0.000009 0.012720 -0.000051 -0.000065 -24.223469 0.000012 -0.000014 -0.000048 -0.073165 0.030706 0.020247 7.473206 2.497357 7.397369 0.124837 -0.009507 -0.099907 0.024236 -0.030014 11.786612 -0.105465 -0.005214 -0.072512 0.023222 -0.032289 11.715988 0.089444 -0.130616 0.175102 0.050297 0.015084 11.755982 -0.154126 0.027269 -0.044369 0.050156 0.014742 11.743139 0.646562 0.597926 -1.496403 -0.002013 -0.023984 11.750630 0.000074 -0.000035 11.750675 
0.000000 0.000000 0.000000 0.000008 0.000000 -0.000000 -0.000000 0.000000 -0.000000 87.553668 -178.307293 -1.848859 0.003484 -0.000000 -0.000022 2.266121 -3.442251 4.971076 2.861691 -5.965688 23.765058 -1.200325 2.995688 21.241538 -0.135341 1.015752 11.723576 0.203953 -1.572310 6.770908 -1.273624 -9.946746 10.122147 18.758616 9.320175 5.623283 7.968473 -2.689842 -43.528413 -1.605083 -0.203774 8.200213 -12.401901 -28.820342 -45.057648 -1.250706 -0.064066 5.863944 0.000101 -0.000139 0.000003 13.401112 -1.567230 42.900831 -11.578672 8.309127 -77.512880 1.899856 0.267012 9.725871 12.497195 -26.603257 -34.719177 -0.270578 0.410607 -2.205429 -0.008414 0.019451 -0.033362 5.646020 1.015437 -33.986028 0.917529 -0.020777 6.784386 0.083463 -0.095007 0.018171 2.596737 4.954141 -34.090762 0.000079 -0.000114 -0.000055 -0.000051 -0.014927 0.015043 -0.008470 0.000172 0.012287 -1.413264 0.440312 -0.258006 4.538042 -0.617371 0.167085 3.912963 0.385628 -36.927978 -2.802594 -2.753129 36.020553 1.794873 18.022748 -19.313680 1.424746 -2.235647 68.708800 -1.080081 -17.860436 -74.858873 2.427348 -2.251863 -49.876490 -1.002632 -0.004216 -0.069901 -0.793877 0.152330 -0.479422 -0.804183 0.123485 -0.482657 -2.946700 -2.617965 36.483899 -2.865494 8.457221 2.660118 -0.463292 1.478438 38.498996 -15.785488 -14.223229 -108.768215 -0.718781 2.617375 -54.133986 2.691658 2.076544 -0.752326 0.036593 0.063695 2.451861 -0.000913 0.100573 2.451956 -0.041780 -0.001066 0.050818 -0.146481 0.086041 -0.361132 0.866255 -0.895277 3.562306 -0.128002 1.499975 -8.993625 -0.045171 0.001628 0.046340 1.563183 0.282305 -4.594795 -1.638934 -1.248448 -7.198590 5.991887 8.623833 43.413635 -0.000044 0.000339 33.480061 -0.441791 -0.458733 -72.796143 -0.000059 -0.000072 -21.993960 0.000020 -0.000008 -0.026802 0.000017 -0.000022 0.012745 -0.000080 -0.000103 -34.639875 0.000036 0.000013 0.015165 0.000024 -0.000012 0.012720 -0.000056 -0.000069 -24.223469 0.000012 -0.000012 -0.000051 -0.073033 0.030646 0.020255 7.451259 2.450606 7.407416 0.124833 -0.009507 -0.099905 0.024250 -0.030014 11.786633 -0.105475 -0.005214 -0.072513 0.023238 -0.032280 11.715965 0.089441 -0.130615 0.175100 0.050311 0.015107 11.755989 -0.154130 0.027268 -0.044367 0.050168 0.014764 11.743129 0.646557 0.597926 -1.496401 -0.001996 -0.024005 11.750625 0.000071 -0.000035 11.750673 
0.000000 0.000000 0.000000 0.000008 0.000000 -0.000000 -0.000000 0.000000 -0.000000 87.408356 -178.309916 -1.853250 0.003484 0.000000 -0.000021 2.266122 -3.442251 4.971077 2.861691 -5.965688 23.765054 -1.200325 2.995690 21.241540 -0.135341 1.015751 11.723577 0.203953 -1.572310 6.770908 -1.273624 -9.946745 10.122147 18.523529 9.118121 5.602813 7.956062 -2.679306 -43.446581 -1.591200 -0.200998 8.128525 -12.262846 -28.537640 -44.967865 -1.250722 -0.064066 5.863946 0.000101 -0.000136 0.000004 13.212530 -1.510761 42.893274 -11.569493 8.276829 -77.344263 1.870522 0.260355 9.573658 12.573429 -26.592015 -34.741645 -0.292305 0.351101 -2.169024 -0.008412 0.019454 -0.033364 5.704090 1.268895 -33.989607 0.917530 -0.020777 6.784387 0.083463 -0.095007 0.018177 2.433210 4.632752 -34.077084 0.000079 -0.000115 -0.000059 -0.000051 -0.014928 0.015034 -0.008345 0.000190 0.012252 -1.413268 0.440311 -0.258013 4.528648 -0.599201 0.146367 3.912965 0.385627 -36.927974 -2.802602 -2.753152 36.020550 1.968647 18.396375 -19.374337 1.430859 -2.238246 68.870894 -1.080078 -17.860434 -74.858873 2.427348 -2.251863 -49.876493 -1.002683 -0.004353 -0.069899 -0.793907 0.152328 -0.479432 -0.804180 0.123484 -0.482661 -2.946699 -2.617991 36.483896 -2.810010 8.745993 2.692940 -0.461225 1.475655 38.414425 -15.785472 -14.223246 -108.768215 -0.718777 2.617377 -54.133976 2.691705 2.076588 -0.752347 0.036621 0.063670 2.451861 -0.000913 0.100574 2.451955 -0.041501 -0.001050 0.050742 -0.146484 0.086037 -0.361130 0.868104 -0.897738 3.570984 -0.128002 1.499976 -8.993623 -0.044984 0.001622 0.046287 1.563186 0.282302 -4.594793 -1.638933 -1.248445 -7.198591 6.146541 8.610581 43.352280 -0.000044 0.000339 33.480064 -0.441791 -0.458732 -72.796143 -0.000060 -0.000069 -21.993957 0.000024 -0.000010 -0.026807 0.000021 -0.000025 0.012743 -0.000076 -0.000105 -34.639882 0.000035 0.000015 0.015168 0.000025 -0.000011 0.012723 -0.000055 -0.000066 -24.223469 0.000013 -0.000012 -0.000050 -0.073034 0.030647 0.020256 7.429757 2.404766 7.417240 0.124832 -0.009497 -0.099905 0.024269 -0.030009 11.786662 -0.105461 -0.005182 -0.072518 0.023254 -0.032279 11.715940 0.089442 -0.130613 0.175100 0.050321 0.015134 11.755994 -0.154134 0.027267 -0.044370 0.050182 0.014784 11.743131 0.646558 0.597931 -1.496401 -0.001977 -0.024024 11.750630 0.000073 -0.000030 11.750673 
0.000000 0.000000 0.000000 0.000008 0.000000 -0.000000 -0.000000 0.000000 -0.000000 87.265113 -178.312525 -1.857541 0.003485 0.000000 -0.000022 2.266122 -3.442251 4.971076 2.861692 -5.965688 23.765034 -1.200324 2.995689 21.241535 -0.135341 1.015751 11.723583 0.203952 -1.572310 6.770907 -1.273624 -9.946745 10.122145 18.300056 8.924526 5.582641 7.944351 -2.669396 -43.369471 -1.577177 -0.198216 8.056157 -12.123292 -28.251947 -44.878253 -1.250707 -0.064065 5.863950 0.000102 -0.000137 0.000005 13.020449 -1.454631 42.879600 -11.559479 8.242000 -77.162286 1.840880 0.253709 9.419911 12.650386 -26.580683 -34.764348 -0.314210 0.291000 -2.132299 -0.008413 0.019451 -0.033367 5.759763 1.511377 -33.996659 0.917529 -0.020778 6.784380 0.083463 -0.095007 0.018170 2.274492 4.317362 -34.064950 0.000080 -0.000114 -0.000057 -0.000052 -0.014930 0.015033 -0.008344 0.000192 0.012252 -1.413268 0.440311 -0.258007 4.519160 -0.580836 0.125443 3.912962 0.385627 -36.927971 -2.802625 -2.753170 36.020567 2.140203 18.758404 -19.441927 1.436813 -2.240762 69.028426 -1.080087 -17.860403 -74.858880 2.427351 -2.251862 -49.876497 -1.002661 -0.004212 -0.069906 -0.793960 0.152328 -0.479426 -0.804180 0.123487 -0.482664 -2.946698 -2.617988 36.483903 -2.756551 9.022318 2.724683 -0.459256 1.472998 38.333781 -15.785476 -14.223249 -108.768215 -0.718772 2.617381 -54.133986 2.691760 2.076627 -0.752339 0.036675 0.063657 2.451861 -0.000913 0.100574 2.451955 -0.041509 -0.001046 0.050737 -0.146484 0.086039 -0.361132 0.869964 -0.900208 3.579711 -0.128000 1.499978 -8.993629 -0.044984 0.001622 0.046293 1.563190 0.282300 -4.594792 -1.638935 -1.248447 -7.198592 6.297930 8.598355 43.290654 -0.000041 0.000336 33.480057 -0.441793 -0.458730 -72.796136 -0.000059 -0.000069 -21.993962 0.000022 -0.000007 -0.026805 0.000020 -0.000024 0.012745 -0.000077 -0.000104 -34.639878 0.000036 0.000013 0.015166 0.000025 -0.000012 0.012721 -0.000055 -0.000068 -24.223469 0.000011 -0.000012 -0.000050 -0.073042 0.030650 0.020260 7.408050 2.358485 7.427139 0.124840 -0.009503 -0.099908 0.024301 -0.030002 11.786695 -0.105459 -0.005191 -0.072516 0.023285 -0.032272 11.715888 0.089445 -0.130615 0.175102 0.050348 0.015177 11.756001 -0.154131 0.027268 -0.044370 0.050206 0.014836 11.743116 0.646559 0.597927 -1.496405 -0.001944 -0.024067 11.750636 0.000075 -0.000034 11.750670 
